<mxfile host="Electron" agent="Mozilla/5.0 (X11; Linux x86_64) AppleWebKit/537.36 (KHTML, like Gecko) draw.io/25.0.1 Chrome/128.0.6613.186 Electron/32.2.6 Safari/537.36" version="25.0.1">
  <diagram id="C5RBs43oDa-KdzZeNtuy" name="Page-1">
    <mxGraphModel dx="787" dy="670" grid="1" gridSize="10" guides="1" tooltips="1" connect="1" arrows="1" fold="1" page="1" pageScale="1" pageWidth="1169" pageHeight="827" math="0" shadow="0">
      <root>
        <mxCell id="WIyWlLk6GJQsqaUBKTNV-0" />
        <mxCell id="WIyWlLk6GJQsqaUBKTNV-1" parent="WIyWlLk6GJQsqaUBKTNV-0" />
        <mxCell id="mTJQdMCI456Ynf87j0-t-16" value="" style="edgeStyle=orthogonalEdgeStyle;rounded=0;orthogonalLoop=1;jettySize=auto;html=1;fontFamily=Helvetica;fontSize=12;fontColor=default;" parent="WIyWlLk6GJQsqaUBKTNV-1" source="WIyWlLk6GJQsqaUBKTNV-3" target="mTJQdMCI456Ynf87j0-t-6" edge="1">
          <mxGeometry relative="1" as="geometry" />
        </mxCell>
        <mxCell id="WIyWlLk6GJQsqaUBKTNV-3" value="search_sociable" style="rounded=1;whiteSpace=wrap;html=1;fontSize=12;glass=0;strokeWidth=1;shadow=0;" parent="WIyWlLk6GJQsqaUBKTNV-1" vertex="1">
          <mxGeometry x="200" y="230" width="100" height="40" as="geometry" />
        </mxCell>
        <mxCell id="mTJQdMCI456Ynf87j0-t-13" value="" style="edgeStyle=orthogonalEdgeStyle;rounded=0;orthogonalLoop=1;jettySize=auto;html=1;fontFamily=Helvetica;fontSize=12;fontColor=default;" parent="WIyWlLk6GJQsqaUBKTNV-1" source="mTJQdMCI456Ynf87j0-t-0" target="mTJQdMCI456Ynf87j0-t-6" edge="1">
          <mxGeometry relative="1" as="geometry" />
        </mxCell>
        <mxCell id="mTJQdMCI456Ynf87j0-t-0" value="Logmessage Dashboard" style="rounded=0;whiteSpace=wrap;html=1;" parent="WIyWlLk6GJQsqaUBKTNV-1" vertex="1">
          <mxGeometry x="10" y="120" width="120" height="60" as="geometry" />
        </mxCell>
        <mxCell id="mTJQdMCI456Ynf87j0-t-15" value="" style="edgeStyle=orthogonalEdgeStyle;rounded=0;orthogonalLoop=1;jettySize=auto;html=1;fontFamily=Helvetica;fontSize=12;fontColor=default;" parent="WIyWlLk6GJQsqaUBKTNV-1" source="mTJQdMCI456Ynf87j0-t-1" target="WIyWlLk6GJQsqaUBKTNV-3" edge="1">
          <mxGeometry relative="1" as="geometry" />
        </mxCell>
        <mxCell id="mTJQdMCI456Ynf87j0-t-1" value="Index" style="rounded=0;whiteSpace=wrap;html=1;" parent="WIyWlLk6GJQsqaUBKTNV-1" vertex="1">
          <mxGeometry x="10" y="220" width="120" height="60" as="geometry" />
        </mxCell>
        <mxCell id="mTJQdMCI456Ynf87j0-t-30" value="" style="edgeStyle=orthogonalEdgeStyle;rounded=0;orthogonalLoop=1;jettySize=auto;html=1;fontFamily=Helvetica;fontSize=12;fontColor=default;" parent="WIyWlLk6GJQsqaUBKTNV-1" source="mTJQdMCI456Ynf87j0-t-2" target="mTJQdMCI456Ynf87j0-t-29" edge="1">
          <mxGeometry relative="1" as="geometry" />
        </mxCell>
        <mxCell id="mTJQdMCI456Ynf87j0-t-2" value="Logmessage&lt;br&gt;Multiple" style="rounded=0;whiteSpace=wrap;html=1;" parent="WIyWlLk6GJQsqaUBKTNV-1" vertex="1">
          <mxGeometry x="490" y="120" width="120" height="60" as="geometry" />
        </mxCell>
        <mxCell id="mTJQdMCI456Ynf87j0-t-32" value="" style="edgeStyle=orthogonalEdgeStyle;rounded=0;orthogonalLoop=1;jettySize=auto;html=1;fontFamily=Helvetica;fontSize=12;fontColor=default;" parent="WIyWlLk6GJQsqaUBKTNV-1" source="mTJQdMCI456Ynf87j0-t-3" target="mTJQdMCI456Ynf87j0-t-7" edge="1">
          <mxGeometry relative="1" as="geometry" />
        </mxCell>
        <mxCell id="mTJQdMCI456Ynf87j0-t-3" value="Sociable&lt;br&gt;Dashboard" style="rounded=0;whiteSpace=wrap;html=1;" parent="WIyWlLk6GJQsqaUBKTNV-1" vertex="1">
          <mxGeometry x="10" y="300" width="120" height="60" as="geometry" />
        </mxCell>
        <mxCell id="mTJQdMCI456Ynf87j0-t-33" style="edgeStyle=orthogonalEdgeStyle;rounded=0;orthogonalLoop=1;jettySize=auto;html=1;exitX=0.5;exitY=1;exitDx=0;exitDy=0;entryX=0.5;entryY=1;entryDx=0;entryDy=0;fontFamily=Helvetica;fontSize=12;fontColor=default;" parent="WIyWlLk6GJQsqaUBKTNV-1" source="mTJQdMCI456Ynf87j0-t-4" target="mTJQdMCI456Ynf87j0-t-7" edge="1">
          <mxGeometry relative="1" as="geometry" />
        </mxCell>
        <mxCell id="mTJQdMCI456Ynf87j0-t-4" value="Unread&lt;br&gt;Message" style="rounded=0;whiteSpace=wrap;html=1;" parent="WIyWlLk6GJQsqaUBKTNV-1" vertex="1">
          <mxGeometry x="650" y="310" width="120" height="60" as="geometry" />
        </mxCell>
        <mxCell id="mTJQdMCI456Ynf87j0-t-18" value="" style="edgeStyle=orthogonalEdgeStyle;rounded=0;orthogonalLoop=1;jettySize=auto;html=1;fontFamily=Helvetica;fontSize=12;fontColor=default;" parent="WIyWlLk6GJQsqaUBKTNV-1" source="mTJQdMCI456Ynf87j0-t-6" target="mTJQdMCI456Ynf87j0-t-17" edge="1">
          <mxGeometry relative="1" as="geometry" />
        </mxCell>
        <mxCell id="mTJQdMCI456Ynf87j0-t-6" value="show_unread_messages" style="rounded=1;whiteSpace=wrap;html=1;fontSize=12;glass=0;strokeWidth=1;shadow=0;" parent="WIyWlLk6GJQsqaUBKTNV-1" vertex="1">
          <mxGeometry x="170" y="130" width="160" height="40" as="geometry" />
        </mxCell>
        <mxCell id="mTJQdMCI456Ynf87j0-t-7" value="SociableDetail" style="rounded=1;whiteSpace=wrap;html=1;fontSize=12;glass=0;strokeWidth=1;shadow=0;" parent="WIyWlLk6GJQsqaUBKTNV-1" vertex="1">
          <mxGeometry x="170" y="310" width="160" height="40" as="geometry" />
        </mxCell>
        <mxCell id="mTJQdMCI456Ynf87j0-t-19" value="" style="edgeStyle=orthogonalEdgeStyle;rounded=0;orthogonalLoop=1;jettySize=auto;html=1;fontFamily=Helvetica;fontSize=12;fontColor=default;" parent="WIyWlLk6GJQsqaUBKTNV-1" source="mTJQdMCI456Ynf87j0-t-17" target="mTJQdMCI456Ynf87j0-t-2" edge="1">
          <mxGeometry relative="1" as="geometry" />
        </mxCell>
        <mxCell id="mTJQdMCI456Ynf87j0-t-43" value="" style="edgeStyle=orthogonalEdgeStyle;rounded=0;orthogonalLoop=1;jettySize=auto;html=1;fontFamily=Helvetica;fontSize=12;fontColor=default;" parent="WIyWlLk6GJQsqaUBKTNV-1" source="mTJQdMCI456Ynf87j0-t-17" target="mTJQdMCI456Ynf87j0-t-22" edge="1">
          <mxGeometry relative="1" as="geometry" />
        </mxCell>
        <mxCell id="mTJQdMCI456Ynf87j0-t-17" value="Multiple&lt;br&gt;Messages?" style="rhombus;whiteSpace=wrap;html=1;rounded=1;shadow=0;glass=0;strokeColor=default;strokeWidth=1;align=center;verticalAlign=middle;fontFamily=Helvetica;fontSize=12;fontColor=default;fillColor=default;" parent="WIyWlLk6GJQsqaUBKTNV-1" vertex="1">
          <mxGeometry x="380" y="110" width="80" height="80" as="geometry" />
        </mxCell>
        <mxCell id="mTJQdMCI456Ynf87j0-t-24" value="" style="edgeStyle=orthogonalEdgeStyle;rounded=0;orthogonalLoop=1;jettySize=auto;html=1;fontFamily=Helvetica;fontSize=12;fontColor=default;" parent="WIyWlLk6GJQsqaUBKTNV-1" source="mTJQdMCI456Ynf87j0-t-22" target="mTJQdMCI456Ynf87j0-t-4" edge="1">
          <mxGeometry relative="1" as="geometry">
            <Array as="points">
              <mxPoint x="690" y="250" />
            </Array>
          </mxGeometry>
        </mxCell>
        <mxCell id="mTJQdMCI456Ynf87j0-t-35" style="edgeStyle=orthogonalEdgeStyle;rounded=0;orthogonalLoop=1;jettySize=auto;html=1;exitX=0.5;exitY=1;exitDx=0;exitDy=0;entryX=1;entryY=0.5;entryDx=0;entryDy=0;fontFamily=Helvetica;fontSize=12;fontColor=default;" parent="WIyWlLk6GJQsqaUBKTNV-1" source="mTJQdMCI456Ynf87j0-t-22" target="mTJQdMCI456Ynf87j0-t-7" edge="1">
          <mxGeometry relative="1" as="geometry" />
        </mxCell>
        <mxCell id="mTJQdMCI456Ynf87j0-t-22" value="Unread mesage?" style="rhombus;whiteSpace=wrap;html=1;rounded=1;shadow=0;glass=0;strokeColor=default;strokeWidth=1;align=center;verticalAlign=middle;fontFamily=Helvetica;fontSize=12;fontColor=default;fillColor=default;" parent="WIyWlLk6GJQsqaUBKTNV-1" vertex="1">
          <mxGeometry x="380" y="210" width="80" height="80" as="geometry" />
        </mxCell>
        <mxCell id="mTJQdMCI456Ynf87j0-t-31" value="" style="edgeStyle=orthogonalEdgeStyle;rounded=0;orthogonalLoop=1;jettySize=auto;html=1;fontFamily=Helvetica;fontSize=12;fontColor=default;" parent="WIyWlLk6GJQsqaUBKTNV-1" source="mTJQdMCI456Ynf87j0-t-29" target="mTJQdMCI456Ynf87j0-t-4" edge="1">
          <mxGeometry relative="1" as="geometry" />
        </mxCell>
        <mxCell id="mTJQdMCI456Ynf87j0-t-29" value="LogMessage&lt;div&gt;Detail&lt;/div&gt;" style="rounded=1;whiteSpace=wrap;html=1;shadow=0;glass=0;strokeColor=default;strokeWidth=1;align=center;verticalAlign=middle;fontFamily=Helvetica;fontSize=12;fontColor=default;fillColor=default;" parent="WIyWlLk6GJQsqaUBKTNV-1" vertex="1">
          <mxGeometry x="650" y="120" width="120" height="60" as="geometry" />
        </mxCell>
        <mxCell id="mTJQdMCI456Ynf87j0-t-36" value="Yes" style="text;html=1;align=center;verticalAlign=middle;whiteSpace=wrap;rounded=0;fontFamily=Helvetica;fontSize=12;fontColor=default;" parent="WIyWlLk6GJQsqaUBKTNV-1" vertex="1">
          <mxGeometry x="460" y="220" width="60" height="30" as="geometry" />
        </mxCell>
        <mxCell id="mTJQdMCI456Ynf87j0-t-37" value="Yes" style="text;html=1;align=center;verticalAlign=middle;whiteSpace=wrap;rounded=0;fontFamily=Helvetica;fontSize=12;fontColor=default;" parent="WIyWlLk6GJQsqaUBKTNV-1" vertex="1">
          <mxGeometry x="440" y="120" width="60" height="30" as="geometry" />
        </mxCell>
        <mxCell id="mTJQdMCI456Ynf87j0-t-38" value="No" style="text;html=1;align=center;verticalAlign=middle;whiteSpace=wrap;rounded=0;fontFamily=Helvetica;fontSize=12;fontColor=default;" parent="WIyWlLk6GJQsqaUBKTNV-1" vertex="1">
          <mxGeometry x="410" y="290" width="60" height="30" as="geometry" />
        </mxCell>
      </root>
    </mxGraphModel>
  </diagram>
</mxfile>
